<?xml version="1.0" standalone="no"?>
<!DOCTYPE svg PUBLIC "-//W3C//DTD SVG 20010904//EN"
 "http://www.w3.org/TR/2001/REC-SVG-20010904/DTD/svg10.dtd">
<svg version="1.0" xmlns="http://www.w3.org/2000/svg"
 width="65.000000pt" height="200.000000pt" viewBox="0 0 200.000000 200.000000"
 preserveAspectRatio="xMidYMid meet">

<g transform="translate(0.000000,200.000000) scale(0.100000,-0.100000)"
fill="#000000" stroke="none">
<path d="M1322 1515 c-11 -14 -26 -54 -33 -89 l-12 -65 -73 -25 c-40 -14 -75
-26 -78 -26 -3 0 -6 15 -7 33 -2 76 -31 109 -57 66 -8 -12 -19 -49 -26 -82
l-12 -60 -94 -37 c-98 -39 -124 -60 -103 -81 10 -10 32 -4 99 25 48 20 88 35
89 34 0 -2 -1 -65 -4 -142 l-6 -139 -35 -19 c-39 -21 -74 -17 -103 11 -17 17
-16 19 23 67 52 63 78 127 60 149 -39 47 -139 -25 -190 -137 -11 -24 -20 -55
-20 -69 0 -21 -7 -28 -35 -36 -19 -6 -48 -8 -63 -4 -24 7 -27 12 -26 52 1 26
16 79 37 130 69 166 102 352 68 392 -18 22 -54 22 -74 -1 -35 -38 -67 -247
-67 -431 l0 -87 -46 -48 c-25 -26 -44 -55 -42 -64 2 -9 21 -26 42 -37 l38 -20
-5 -136 c-7 -154 -3 -179 25 -179 13 0 25 14 40 46 24 56 22 160 -5 213 -23
46 -22 58 8 65 14 4 43 22 63 41 l38 34 26 -29 c23 -26 33 -30 78 -30 58 0 77
8 138 57 27 22 42 29 42 20 0 -27 41 -66 74 -73 38 -7 115 22 153 58 l23 21 0
-31 c0 -17 4 -33 10 -37 8 -5 65 50 83 81 13 23 25 16 46 -25 36 -71 127 -90
193 -41 l27 20 3 -28 c3 -23 8 -27 40 -30 20 -2 47 2 59 8 23 13 23 26 -2 112
-10 37 -10 51 -1 60 9 9 17 7 35 -10 13 -12 29 -22 35 -22 15 0 102 79 102 92
0 4 -11 13 -24 18 -13 5 -27 14 -31 19 -12 20 -45 11 -83 -24 -41 -36 -52 -36
-52 0 0 32 -22 47 -52 36 -24 -9 -88 -77 -88 -93 0 -4 17 -8 38 -10 36 -3 37
-4 37 -43 0 -34 -4 -41 -26 -49 -44 -15 -97 19 -137 87 -18 31 -39 57 -47 57
-8 0 -38 -29 -66 -65 -28 -36 -55 -65 -60 -65 -5 0 -9 31 -9 69 0 56 6 81 34
142 18 41 43 104 55 140 18 55 27 69 51 79 35 15 41 49 10 57 -16 4 -20 14
-20 44 0 97 -61 144 -108 84z m43 -104 c0 -18 -7 -26 -27 -32 -31 -8 -37 6
-17 42 14 27 44 20 44 -10z m-682 -117 c-1 -84 -55 -264 -61 -206 -5 46 14
221 27 255 20 50 36 26 34 -49z m673 -11 c-15 -61 -47 -163 -51 -163 -3 0 -5
43 -5 95 l0 95 31 0 c29 0 31 -2 25 -27z m-94 -170 l-5 -182 -28 -11 c-54 -23
-119 12 -138 74 -22 74 -22 108 0 181 l23 72 75 25 c42 14 77 25 77 24 1 -1
-1 -83 -4 -183z m-376 -65 c-7 -37 -32 -78 -46 -78 -14 0 -12 84 2 98 7 7 21
12 31 12 17 0 19 -5 13 -32z"/>
<path d="M132 688 c-45 -22 -41 -88 8 -108 67 -28 114 55 58 103 -23 19 -34
20 -66 5z"/>
<path d="M462 684 c-46 -32 -17 -114 40 -114 26 0 58 36 58 65 0 29 -32 65
-58 65 -10 0 -28 -7 -40 -16z"/>
<path d="M795 675 c-14 -13 -25 -31 -25 -40 0 -21 44 -65 65 -65 21 0 65 44
65 65 0 9 -11 27 -25 40 -13 14 -31 25 -40 25 -9 0 -27 -11 -40 -25z"/>
</g>
</svg>
